<?xml version="1.0" encoding="UTF-8"?>
<svg id="Logo" xmlns="http://www.w3.org/2000/svg" viewBox="0 0 85.04 85.04">
  <defs>
    <style>
      .cls-1 {
        fill: #4ad827;
      }
    </style>
  </defs>
  <path class="cls-1" d="M82.96,64.43c-.89,5.98-7.32,16.2-19.56,17.94-14.7-.06-23.92-21.61-24.54-30.47-.23.01-.45.03-.68.04-.03,9.34-8.65,30.65-19.93,30.42-9.31-.97-15.24-7.38-16.18-16.76-.05-6.93,7.81-13.3,10.43-13.47,1.87-.22,3.51.72,7.21.19,5.55-.75,10.37-3.84,13.54-8.69-3.7-6.16-10.58-14.46-26.94-19.14-2.75-.65-3.78-2.17-3.77-3.34C3.4,14.33,9.97,4.68,21.88,3.15c13.89.22,22.63,19.51,23.57,27.35.23-.01.46-.02.7-.04.99-10.03,10.73-28.27,20.78-27.79,8.12.65,13.39,6.22,13.67,14.18-.16,6.78-6.85,13.77-10.54,14.18-1.54.22-2.86-.6-6.31-.28-4.75.38-9.75,3.25-12.54,7.02,3.26,6.86,8.92,13.85,28.92,23.63,1.87.93,2.85,1.86,2.84,3.04Z"/>
</svg>