<?xml version="1.0" encoding="UTF-8"?>
<svg id="Logo" xmlns="http://www.w3.org/2000/svg" viewBox="0 0 766.49 371.91">
  <defs>
    <style>
      .cls-1, .cls-2 {
        fill: none;
        stroke: #4ad827;
        stroke-linecap: round;
        stroke-linejoin: round;
        stroke-width: 8px;
      }

      .cls-3 {
        font-size: 17.74px;
        letter-spacing: .02em;
      }

      .cls-3, .cls-4, .cls-5 {
        fill: #fff;
      }

      .cls-3, .cls-5 {
        font-family: AppetitePro-Bold, AppetitePro;
        font-weight: 700;
      }

      .cls-2 {
        stroke-dasharray: 11.82 11.82;
      }

      .cls-5 {
        font-size: 17.47px;
        letter-spacing: .02em;
      }

      .cls-6 {
        fill: #4ad827;
      }

      .cls-7 {
        fill: #ececec;
      }
    </style>
  </defs>
  <g id="Explorer">
    <path class="cls-4" d="M26.73,123.49l21.02-71.44c.84-2.59,2.6-3.88,5.28-3.88s4.23,1.1,4.9,3.29l20.82,72.53c.16.54.25,1.06.25,1.55,0,1.45-.5,2.68-1.49,3.7s-2.13,1.52-3.42,1.52c-2.73,0-4.47-1.26-5.22-3.79l-4.13-14.17h-23.91l-4.55,15.18c-.13.66-.65,1.29-1.56,1.89-.92.6-1.92.9-3,.9-1.54,0-2.81-.52-3.81-1.55-1-1.04-1.5-2.3-1.5-3.79,0-.62.1-1.26.31-1.93ZM52.96,72.34l-8.96,29.89h17.66l-8.71-29.89Z"/>
    <path class="cls-4" d="M135.67,130.76h-31.57c-1.45,0-2.68-.53-3.7-1.59-1.02-1.06-1.52-2.31-1.52-3.76s.51-2.63,1.52-3.67c1.01-1.04,2.25-1.55,3.7-1.55h10.44v-61.59h-10.57c-1.45,0-2.68-.51-3.7-1.52-1.02-1.01-1.52-2.25-1.52-3.7s.51-2.68,1.52-3.7,2.25-1.52,3.7-1.52h15.91c1.41,0,2.63.52,3.67,1.55,1.04,1.04,1.55,2.26,1.55,3.67v66.81h10.57c1.41,0,2.63.52,3.67,1.55,1.04,1.04,1.55,2.26,1.55,3.67s-.51,2.7-1.52,3.76c-1.02,1.06-2.25,1.59-3.7,1.59Z"/>
    <path class="cls-4" d="M280.16,89.62v22.06c0,4.68-2.21,9.01-6.62,12.99-4.41,3.98-8.96,5.97-13.64,5.97h-12.24c-4.76,0-9.32-2.02-13.67-6.06-4.35-4.04-6.53-8.34-6.53-12.9v-22.06c0-4.56,2.12-8.86,6.37-12.9,4.25-4.04,8.86-6.06,13.83-6.06h12.24c4.68-.08,9.23,1.86,13.64,5.84,4.41,3.98,6.62,8.35,6.62,13.11ZM238.03,90.05v21.13c0,1.91.68,3.42,2.05,4.54l3.92,3.36c.87.75,2.09,1.12,3.67,1.12h12.12c1.78,0,3.4-.64,4.85-1.93l3.17-2.8c1.28-.99,1.93-2.38,1.93-4.16v-21.13c0-2.07-.64-3.6-1.93-4.6l-3.67-2.92c-1.24-1.04-2.69-1.55-4.35-1.55h-10.81c-2.36,0-4.19.56-5.47,1.68l-3.54,3.05c-1.28,1.08-1.93,2.49-1.93,4.23Z"/>
    <path class="cls-4" d="M298.11,125.54v-49.53c0-1.45.51-2.7,1.52-3.76,1.01-1.06,2.25-1.58,3.7-1.58s2.68.52,3.7,1.55c1.01,1.04,1.52,2.3,1.52,3.79v6.53l8.51-7.27c3.52-2.98,6.96-4.47,10.32-4.47h7.65c4.31,0,8,1.53,11.06,4.6,3.07,3.07,4.6,6.75,4.6,11.06v2.8c0,1.49-.51,2.76-1.52,3.79-1.02,1.04-2.25,1.55-3.7,1.55s-2.68-.51-3.7-1.52c-1.02-1.01-1.52-2.25-1.52-3.7v-2.92c0-1.45-.51-2.68-1.52-3.7-1.02-1.01-2.25-1.52-3.7-1.52h-6.78c-1.45,0-3.07.77-4.85,2.3l-14.85,12.87v29.15c0,1.45-.52,2.68-1.55,3.7-1.04,1.02-2.26,1.52-3.67,1.52s-2.68-.51-3.7-1.52c-1.02-1.02-1.52-2.25-1.52-3.7Z"/>
    <path class="cls-4" d="M406.59,130.64h-31.82c-1.45,0-2.68-.51-3.7-1.52-1.02-1.02-1.52-2.25-1.52-3.7s.51-2.63,1.52-3.67c1.01-1.04,2.25-1.55,3.7-1.55h10.69v-38.97h-10.57c-1.45,0-2.68-.52-3.7-1.55-1.02-1.04-1.52-2.26-1.52-3.67s.51-2.7,1.52-3.76c1.01-1.06,2.25-1.58,3.7-1.58h15.91c1.45,0,2.68.53,3.7,1.58,1.02,1.06,1.52,2.31,1.52,3.76v44.19h10.44c1.45,0,2.7.51,3.76,1.52,1.06,1.02,1.58,2.25,1.58,3.7s-.52,2.68-1.55,3.7c-1.04,1.02-2.26,1.52-3.67,1.52ZM385.34,43.56h5.47c1.45,0,2.68.51,3.7,1.52,1.02,1.02,1.52,2.25,1.52,3.7v4.47c0,1.45-.51,2.7-1.52,3.76-1.02,1.06-2.25,1.58-3.7,1.58h-5.59c-1.49,0-2.75-.54-3.76-1.62-1.02-1.08-1.5-2.28-1.46-3.6l.12-4.6c0-1.45.51-2.68,1.52-3.7,1.01-1.01,2.25-1.52,3.7-1.52Z"/>
    <path class="cls-4" d="M461.72,130.76h-10.44c-4.31,0-8.02-1.53-11.12-4.6-3.11-3.07-4.66-6.75-4.66-11.06v-33.87h-5.34c-1.45,0-2.68-.5-3.7-1.49-1.02-.99-1.52-2.24-1.52-3.73s.51-2.68,1.52-3.7c1.01-1.01,2.25-1.52,3.7-1.52h5.47v-12.8c0-1.45.51-2.68,1.52-3.7,1.01-1.01,2.25-1.52,3.7-1.52,1.37,0,2.58.52,3.64,1.55,1.06,1.04,1.58,2.26,1.58,3.67v12.8h21.01c1.41,0,2.63.52,3.67,1.55,1.04,1.04,1.55,2.26,1.55,3.67s-.52,2.68-1.55,3.7c-1.04,1.02-2.26,1.52-3.67,1.52h-21.13v33.87c0,1.41.53,2.63,1.58,3.67,1.06,1.04,2.31,1.55,3.76,1.55h10.19c2.78,0,4.62-1.5,5.53-4.51.91-3,2.67-4.51,5.28-4.51,1.53,0,2.79.51,3.76,1.52.97,1.02,1.46,2.29,1.46,3.82,0,3.15-1.48,6.29-4.44,9.42-2.96,3.13-6.74,4.69-11.34,4.69Z"/>
    <path class="cls-4" d="M494.97,125.54V53.38c0-1.41.51-2.61,1.52-3.6,1.01-.99,2.25-1.49,3.7-1.49s2.68.51,3.7,1.52c1.02,1.02,1.52,2.25,1.52,3.7v26.35l8.39-5.47c3.81-2.4,7.21-3.6,10.19-3.6h6.46c4.27,0,7.93,1.52,11,4.57,3.07,3.05,4.66,6.74,4.79,11.09l1.31,39.09c.04,1.45-.46,2.68-1.49,3.7-1.04,1.02-2.28,1.52-3.73,1.52s-2.67-.53-3.67-1.59c-.99-1.06-1.51-2.27-1.55-3.64l-1.31-39.22c-.04-1.41-.58-2.63-1.62-3.67-1.04-1.04-2.28-1.55-3.73-1.55h-5.84c-1.33,0-2.78.52-4.35,1.55l-14.85,9.7v33.19c0,1.45-.51,2.68-1.52,3.7s-2.25,1.52-3.7,1.52-2.68-.51-3.7-1.52c-1.02-1.02-1.52-2.25-1.52-3.7Z"/>
    <path class="cls-4" d="M565.15,125.54v-49.53c0-1.45.51-2.68,1.52-3.7,1.02-1.01,2.25-1.52,3.7-1.52,2.69,0,4.39,1.33,5.1,3.98,2.9-2.73,6.12-4.1,9.68-4.1,4.18,0,7.61,1.78,10.3,5.34,3.31-3.56,6.95-5.34,10.92-5.34,3.23,0,6.03,1.15,8.41,3.45,2.38,2.3,3.65,5.23,3.82,8.79l1.49,42.63c0,1.41-.52,2.63-1.55,3.67s-2.26,1.55-3.67,1.55-2.69-.52-3.73-1.55c-1.04-1.04-1.57-2.26-1.62-3.67l-1.24-40.96c-.08-2.24-.77-3.36-2.05-3.36-.7,0-1.43.31-2.18.93l-6.22,5.22v38.16c0,1.41-.51,2.61-1.52,3.6-1.02.99-2.25,1.49-3.7,1.49s-2.63-.51-3.67-1.52c-1.04-1.02-1.55-2.25-1.55-3.7v-41.52c0-1.78-.76-2.67-2.29-2.67-.74,0-1.42.27-2.04.81l-7.48,6.34v37.17c0,1.41-.5,2.63-1.49,3.67-.99,1.04-2.2,1.55-3.6,1.55s-2.7-.52-3.76-1.55c-1.06-1.04-1.59-2.26-1.59-3.67Z"/>
    <g>
      <path class="cls-4" d="M145.16,212.74c.41-1.56-.62-3.01-2.08-2.49-2.66.86-5.2,1.57-7.62,2.12.69,3.46,1.81,6.85,3.38,10.11,3.27-3.15,5.4-6.7,6.31-9.74Z"/>
      <path class="cls-4" d="M130.46,177.88c4.19-.32,7.29-1.54,9.49-3.35.8-1.01,1.65-1.98,2.54-2.93,1.25-2.09,1.83-4.54,1.83-7.12,0-.95-.06-1.81-.17-2.61-5.75,4.51-10.34,9.98-13.7,16.02Z"/>
      <path class="cls-4" d="M130.65,213.25c-1.9.27-3.72.42-5.42.42-.22,0-.44-.01-.66-.02.63,3.47,1.61,6.9,2.94,10.24-1.07,1.35-1.14,3.3-.05,4.73l.41.55c2.65-.92,5.01-2.15,7.08-3.55-2.03-3.96-3.47-8.13-4.3-12.37Z"/>
      <path class="cls-4" d="M87.24,205.05c0,18.06,13.49,25.95,29.48,25.95.79,0,1.55-.03,2.31-.08.53-1.06,1.29-2,2.27-2.74.2-.15.41-.28.62-.41-.23-1.37-.14-2.78.28-4.12-1.24-3.48-2.12-7.02-2.68-10.59-5.98-1.37-9.85-5.17-9.85-12.17v-.62c2.96.42,6.4.8,9.22.99.24-4.98,1.11-9.91,2.59-14.65-3.24.15-7.14.18-11.8-.05v-9.03s8.79.3,15.28.39c3.91-7.88,9.6-14.94,16.92-20.5.24-.18.49-.35.73-.53-.94-1.56-2.06-2.3-2.83-2.3-1.35,0-4.57,1.66-11.62,1.66-6.02-.1-15.57-.21-23.87-.31-15.36,0-21.8,6.23-21.8,9.13,0,2.28,4.67,2.18,4.67,13.6,0,3.01.1,26.36.1,26.36Z"/>
      <path class="cls-4" d="M130,199.27c.47-4.74,1.66-9.4,3.52-13.82-1.13.05-3.32.45-6.8.8-1.7,4.87-2.69,9.96-2.94,15.1,2.56-.21,4.6-.98,6.22-2.08Z"/>
    </g>
    <g>
      <path class="cls-4" d="M211.96,179.35c-2.2,2.19-3.28,4.63-3.28,5.57,0,.83.21,1.04.93,1.56,2.8,1.87,3.94,4.36,3.94,10.07,0,3.29-.02,16.69-.06,29.75,8.69-14.17,8.58-32.71-1.54-46.95Z"/>
      <path class="cls-4" d="M222.43,175.29c-.22,0-.44-.02-.68-.02-2.22,0-4.15.49-5.79,1.26,12.7,17.91,11.24,41.9-2.49,58.13-.01,3.15-.02,6.12-.03,8.77,19.04-17.46,22.87-46.3,8.99-68.14Z"/>
      <path class="cls-4" d="M250.2,175.48c-6.54,0-13.6,3.63-16.09,10.59h-.31c-.1-.73-.31-1.45-.52-2.18-.75-2.46-2-4.55-3.79-6.06,2.65,5.3,4.44,10.88,5.37,16.55,1.3-3.28,3.5-5.41,6.62-5.41,5.19,0,7.89,6.12,7.89,13.7s-2.7,13.6-7.89,13.6c-2.89,0-5-1.83-6.33-4.71-1.91,14.63-9.32,28.52-21.74,38.31-.02,2.73-.04,4.41-.05,4.48,0,.41.41.52.41.52,3.22.62,6.02,1.04,9.65,1.04s7.37-.31,10.38-1.04c0,0,.52-.1.52-.62v-32.69h.31c3.11,6.12,7.58,9.03,14.01,9.03,13.6,0,21.8-14.32,21.8-28.54s-7.16-26.57-20.24-26.57Z"/>
    </g>
  </g>
  <g id="Algorithm_" data-name="Algorithm">
    <path class="cls-6" d="M205.77,218.34c-.63,4.22-5.16,11.43-13.8,12.66-10.38-.04-16.88-15.25-17.32-21.5-.16,0-.32.02-.48.03-.02,6.59-6.11,21.63-14.06,21.47-6.57-.68-10.76-5.21-11.42-11.83-.04-4.89,5.51-9.39,7.36-9.51,1.32-.16,2.47.51,5.09.14,3.91-.53,7.32-2.71,9.56-6.14-2.61-4.35-7.47-10.21-19.02-13.51-1.94-.46-2.66-1.53-2.66-2.36.6-4.81,5.24-11.62,13.64-12.7,9.81.16,15.97,13.77,16.64,19.31.16,0,.33-.02.49-.03.7-7.08,7.57-19.96,14.67-19.62,5.73.46,9.45,4.39,9.65,10-.11,4.79-4.84,9.72-7.44,10.01-1.08.16-2.02-.42-4.46-.2-3.34.27-6.89,2.3-8.85,4.95,2.3,4.85,6.3,9.77,20.41,16.68,1.32.66,2.01,1.32,2.01,2.15Z"/>
    <path class="cls-4" d="M277.82,217.92v-66.32c0-.21.1-.41.41-.52,2.91-.62,6.75-1.04,9.96-1.04,3.63,0,6.95.31,10.07,1.04,0,0,.42.1.42.52v57.71c0,5.81,1.56,8.3,4.36,10.17.73.52.93.73.93,1.56,0,1.87-4.25,9.76-13.08,9.76-7.47,0-13.08-4.46-13.08-12.87Z"/>
    <path class="cls-4" d="M365.17,202.98c0,16.71-12.04,28.13-29.06,28.13s-28.96-11.1-28.96-28.13,12.35-27.92,28.96-27.92,29.06,11.42,29.06,27.92ZM344.62,202.98c0-9.24-2.39-16.5-8.51-16.5s-8.41,7.26-8.41,16.5,2.39,16.4,8.41,16.4c6.33,0,8.51-7.06,8.51-16.4Z"/>
    <path class="cls-4" d="M402.24,196.54c0-1.87-.73-3.84-2.8-3.84-3.94,0-5.4,5.29-5.4,12.97v22.63c0,.52-.52.62-.52.62-3.01.73-6.43,1.04-9.96,1.04s-7.16-.41-10.38-1.04c0,0-.42-.1-.42-.52.1-.41.42-25.01.42-31.86,0-5.71-1.14-8.2-3.94-10.07-.73-.52-.93-.73-.93-1.56,0-1.87,4.25-9.65,13.08-9.65,6.75,0,11,4.36,11.83,11.93.1.83.1,1.77.1,2.7h.52c2.08-9.44,8.3-14.63,15.36-14.63s12.04,4.88,12.04,12.66c0,9.03-8.1,15.98-15.36,15.98-1.66,0-4.26,0-4.26-1.87,0-.52.62-3.74.62-5.5Z"/>
    <path class="cls-4" d="M476.7,213.56c0,4.88-7.58,17.02-23.46,17.02-17.44,0-29.27-10.69-29.27-27.5s11.31-27.71,29.48-27.71c16.81,0,24.29,9.55,24.29,17.12,0,12.66-12.97,16.5-22.21,16.5-5.19,0-8.82-.62-10.48-1.25.83,5.92,7.37,9.13,13.6,9.13,10.59,0,15.26-4.78,17.12-4.78.83,0,.93.93.93,1.45ZM444.43,198.93s1.14,0,2.39.1c7.47,0,11.11-4.15,11.11-7.68,0-2.8-1.77-4.98-5.6-4.98-5.19,0-7.99,5.92-7.89,12.56Z"/>
    <path class="cls-4" d="M514.83,196.54c0-1.87-.73-3.84-2.8-3.84-3.94,0-5.4,5.29-5.4,12.97v22.63c0,.52-.52.62-.52.62-3.01.73-6.43,1.04-9.96,1.04s-7.16-.41-10.38-1.04c0,0-.42-.1-.42-.52.1-.41.42-25.01.42-31.86,0-5.71-1.14-8.2-3.94-10.07-.73-.52-.93-.73-.93-1.56,0-1.87,4.25-9.65,13.08-9.65,6.75,0,11,4.36,11.83,11.93.1.83.1,1.77.1,2.7h.52c2.08-9.44,8.3-14.63,15.36-14.63s12.04,4.88,12.04,12.66c0,9.03-8.1,15.98-15.36,15.98-1.66,0-4.26,0-4.26-1.87,0-.52.62-3.74.62-5.5Z"/>
    <g>
      <path class="cls-4" d="M163.98,152.1c.9.68,1.94,1.04,3.14,1.04h22.62c.97,0,1.99-.13,3.06-.36-5.07-1.54-10.34-2.33-15.64-2.33-4.42,0-8.85.55-13.18,1.65Z"/>
      <path class="cls-4" d="M161.53,118.27l3.92,3.48c3.31,2.86,7.04,4.29,11.19,4.29h8.02c4.64,0,9.41-2.46,14.29-7.4v15.91c0,1.49-.6,2.69-1.8,3.6l-3.54,3.05c-1.2,1.04-2.49,1.55-3.85,1.55h-22.62c-1.45,0-2.68.5-3.7,1.49-.93.91-1.41,2.02-1.49,3.31,4.91-1.32,10.01-2.01,15.23-2.01,7.8,0,15.32,1.51,22.26,4.35.13-.1.27-.2.39-.3l4.23-3.67c3.56-3.15,5.34-6.94,5.34-11.37v-58.55c0-1.45-.53-2.68-1.58-3.7-1.06-1.01-2.31-1.52-3.76-1.52s-2.63.52-3.67,1.55-1.55,2.26-1.55,3.67l.12,2.05-3.6-3.05c-3.36-2.9-7.09-4.35-11.19-4.35h-7.52c-4.14,0-7.75,1.33-10.81,3.98l-4.29,3.67c-1.28,1.08-2.39,2.71-3.33,4.91-.93,2.2-1.4,4.52-1.4,6.96v17.28c0,1.99.47,4.02,1.4,6.09.93,2.07,2.04,3.65,3.33,4.72ZM167.25,89.8c0-1.78.62-3.19,1.86-4.23l3.23-2.67c1.41-1.2,2.88-1.8,4.41-1.8h7.02c1.78,0,3.27.56,4.47,1.68l8.51,7.27c1.45,1.2,2.18,2.76,2.18,4.66v7.89c0,1.62-.64,2.98-1.93,4.1l-8.27,7.02c-1.49,1.24-2.86,1.86-4.1,1.86h-8.51c-1.2,0-2.34-.46-3.42-1.37l-3.42-3.05c-1.37-1.24-2.05-2.57-2.05-3.98v-17.4Z"/>
    </g>
  </g>
  <g id="Magnifying_Glass" data-name="Magnifying Glass">
    <path class="cls-4" d="M131.84,246.93l-8.15-10.72c-.98-1.29-.73-3.14.56-4.12s3.14-.73,4.12.56l8.15,10.72c.98,1.29.73,3.14-.56,4.12s-3.14.73-4.12-.56Z"/>
    <path class="cls-4" d="M209.63,246.63c23.51-17.87,28.11-51.53,10.24-75.05s-51.53-28.11-75.05-10.24c-19.59,14.89-26.03,40.74-17.31,62.55-1.07,1.35-1.14,3.3-.05,4.73l12.69,16.7c1.09,1.44,2.98,1.88,4.57,1.22,18.68,14.25,45.31,14.97,64.9.08ZM139.41,232.72c-15.84-20.85-11.77-50.71,9.08-66.55,20.85-15.84,50.71-11.77,66.55,9.08,15.84,20.85,11.77,50.71-9.08,66.55-20.85,15.84-50.71,11.77-66.55-9.08Z"/>
    <path class="cls-4" d="M54.6,301.34c1.89,2.48,5.51,2.74,7.73.55,8.5-8.36,18.12-17.09,28.93-25.88,12.09-9.83,23.83-18.24,34.8-25.4,1.98-1.29,2.44-3.99,1.01-5.87l-1.51-1.99-.41-.54-.63-.83c-1.43-1.88-4.15-2.16-5.93-.6-9.84,8.65-21.08,17.71-33.79,26.72-11.36,8.06-22.35,14.98-32.68,20.94-2.7,1.56-3.42,5.12-1.54,7.6l4.03,5.3Z"/>
  </g>
  <g id="Compass">
    <path class="cls-4" d="M677.45,145.59l-21.93-10.48c-4.72-2.25-10.39-.25-12.64,4.47-2.25,4.72-.25,10.39,4.47,12.64l21.93,10.48c4.72,2.25,10.39.25,12.64-4.47,2.25-4.72.25-10.39-4.47-12.64ZM646.46,141.29c1.31-2.74,4.61-3.91,7.35-2.6l14.98,7.16c-1.68.92-3.1,2.35-3.99,4.21s-1.11,3.86-.77,5.74l-14.98-7.16c-2.74-1.31-3.91-4.61-2.6-7.35ZM670.99,159.12c-2.74-1.31-3.91-4.61-2.6-7.35,1.31-2.74,4.61-3.91,7.35-2.6s3.91,4.61,2.6,7.35-4.61,3.91-7.35,2.6Z"/>
    <g>
      <path class="cls-4" d="M677.45,145.59l-21.93-10.48c-4.72-2.25-10.39-.25-12.64,4.47-2.25,4.72-.25,10.39,4.47,12.64l21.93,10.48c4.72,2.25,10.39.25,12.64-4.47s.25-10.39-4.47-12.64ZM646.46,141.29c1.31-2.74,4.61-3.91,7.35-2.6l14.98,7.16c-1.68.92-3.1,2.35-3.99,4.21s-1.11,3.86-.77,5.74l-14.98-7.16c-2.74-1.31-3.91-4.61-2.6-7.35ZM670.99,159.12c-2.74-1.31-3.91-4.61-2.6-7.35,1.31-2.74,4.61-3.91,7.35-2.6s3.91,4.61,2.6,7.35-4.61,3.91-7.35,2.6Z"/>
      <path class="cls-4" d="M688.61,47.07c6.95,0,13.68,1.53,20,4.55,11.2,5.35,19.65,14.75,23.78,26.45,4.14,11.71,3.47,24.32-1.89,35.52-7.67,16.06-24.15,26.44-41.97,26.44-1.15,0-2.31-.04-3.47-.13-1.16-.96-2.41-1.76-3.76-2.4l-21.93-10.48c-1.44-.69-2.96-1.18-4.53-1.47-13.21-13.92-16.54-34.62-8.22-52.03,7.68-16.07,24.15-26.45,41.97-26.45M688.61,42.07c-19.21,0-37.65,10.8-46.48,29.29-9.73,20.37-4.88,43.93,10.37,58.91,1.6.12,3.21.53,4.74,1.26l21.93,10.48c1.45.69,2.71,1.63,3.78,2.72,1.87.21,3.74.31,5.6.31,19.21,0,37.64-10.79,46.48-29.28,12.26-25.65,1.4-56.38-24.25-68.64-7.16-3.42-14.72-5.04-22.16-5.04h0Z"/>
    </g>
    <g>
      <path class="cls-4" d="M677.45,145.59l-21.93-10.48c-4.72-2.25-10.39-.25-12.64,4.47-2.25,4.72-.25,10.39,4.47,12.64l21.93,10.48c4.72,2.25,10.39.25,12.64-4.47s.25-10.39-4.47-12.64ZM646.46,141.29c1.31-2.74,4.61-3.91,7.35-2.6l14.98,7.16c-1.68.92-3.1,2.35-3.99,4.21s-1.11,3.86-.77,5.74l-14.98-7.16c-2.74-1.31-3.91-4.61-2.6-7.35ZM670.99,159.12c-2.74-1.31-3.91-4.61-2.6-7.35,1.31-2.74,4.61-3.91,7.35-2.6s3.91,4.61,2.6,7.35-4.61,3.91-7.35,2.6Z"/>
      <path class="cls-4" d="M670.19,167.21c-.89-.22-1.76-.52-2.62-.93l-15.24-7.28-.54,1.13c2.85,1.36,5.55,2.98,8.03,4.81,9.66,7.14,15.35,17.04,16.02,27.89.69,11.12-3.93,22-13.01,30.62-16.48,15.66-43.6,19.78-64.48,9.8-2.85-1.36-5.55-2.98-8.03-4.81-9.66-7.14-15.35-17.04-16.02-27.89-.69-11.12,3.93-22,13.01-30.62,16.48-15.66,43.6-19.78,64.48-9.8l.54-1.13-6.69-3.2c-2.42-1.16-4.33-2.96-5.64-5.09-19.67-3.94-41.61,1.39-56.33,15.38-20.93,19.88-19.36,49.7,3.5,66.6,2.79,2.06,5.77,3.84,8.89,5.33,22.43,10.72,52.03,6.72,70.4-10.74,18.45-17.53,19.41-42.76,3.72-60.07Z"/>
    </g>
    <g>
      <text class="cls-3" transform="translate(642.4 171.24) rotate(36.46) scale(.98) skewX(-10)"><tspan x="0" y="0">N</tspan></text>
      <text class="cls-3" transform="translate(606.9 221.52) rotate(-143.54) scale(.98) skewX(-10)"><tspan x="0" y="0">S</tspan></text>
    </g>
    <g>
      <text class="cls-5" transform="translate(653.48 210.79) rotate(136.46) scale(1.02 .98) skewX(9.7)"><tspan x="0" y="0">E</tspan></text>
      <text class="cls-5" transform="translate(593.65 185.43) rotate(-43.54) scale(1.02 .98) skewX(9.7)"><tspan x="0" y="0">W</tspan></text>
    </g>
    <path class="cls-7" d="M617.43,199.81c-1.89-3.48-.01-7.72,4.2-9.44,4.21-1.72,9.17-.29,11.07,3.19,1.89,3.48,0,7.72-4.2,9.44-4.21,1.72-9.17.29-11.07-3.19ZM628.8,195.16c-.93-1.7-3.36-2.4-5.42-1.56s-2.98,2.92-2.05,4.62c.93,1.7,3.36,2.4,5.42,1.56,2.06-.84,2.98-2.92,2.06-4.62Z"/>
    <g>
      <path class="cls-4" d="M624.17,193.35s-.03,0-.04.01c.01,0,.03,0,.04-.01Z"/>
      <path class="cls-4" d="M622.68,193.96s-.01,0-.01,0c0,0,0,0,.01,0Z"/>
      <path class="cls-4" d="M627.76,203.23c.5-.16.98-.35,1.43-.59-.24.12-.45.26-.7.36s-.49.15-.73.23Z"/>
      <path class="cls-4" d="M631.47,192l9.14-1.68-7.3,5.05c.46,2.54-.77,5.18-3.26,6.81.05-.03.12-.05.17-.09l17.33-12c1.06-.73,1.41-1.95.86-2.96s-1.86-1.55-3.18-1.31l-21.69,3.98c-.06.01-.12.04-.19.05,3.03-.63,6.16.22,8.13,2.14Z"/>
      <path class="cls-4" d="M625.95,200.02s.03,0,.04-.01c-.01,0-.03,0-.04.01Z"/>
      <path class="cls-6" d="M618.66,201.37l-9.14,1.68,7.3-5.05c-.46-2.54.77-5.18,3.26-6.81-.05.03-.11.05-.16.09l-17.33,12h0c-1.05.73-1.41,1.95-.86,2.96.55,1.01,1.86,1.55,3.18,1.31l21.69-3.98c.06-.01.12-.04.18-.05-3.03.63-6.15-.22-8.12-2.14Z"/>
      <path class="cls-4" d="M627.44,199.41s.01,0,.02-.01c0,0-.01,0-.02.01Z"/>
      <path class="cls-4" d="M621.63,190.37c.25-.1.51-.16.76-.24-.5.16-.98.35-1.44.59.23-.12.43-.25.68-.35Z"/>
    </g>
  </g>
  <g>
    <path class="cls-1" d="M196.77,265.39c1.57,1.27,3.13,2.52,4.69,3.74"/>
    <path class="cls-2" d="M210.9,276.24c44.94,32.51,86.06,43.84,109.2,48.37,25.04,4.9,61.32,11.47,95.24-7.26,7.57-4.18,36.99-20.42,34.24-40.86-1.85-13.77-18.16-28.36-34.22-25.44-14.36,2.61-24.64,18.5-23.42,30.97,2.2,22.53,42.24,37.22,68.09,39.75,55.14,5.39,99.99-39.26,118.14-60.49"/>
    <path class="cls-1" d="M581.95,256.74c1.63-2.02,2.88-3.63,3.71-4.71"/>
  </g>
</svg>